<svg width="48" height="48" viewBox="0 0 48 48" fill="none" xmlns="http://www.w3.org/2000/svg">
<circle cx="24" cy="24" r="24" fill="url(#paint0_linear)"/>
<path d="M14.9333 29.3333C14.5114 29.3333 14.0989 29.4584 13.7481 29.6928C13.3973 29.9272 13.1238 30.2604 12.9624 30.6502C12.8009 31.04 12.7587 31.469 12.841 31.8828C12.9233 32.2966 13.1265 32.6767 13.4248 32.9751C13.7232 33.2734 14.1033 33.4766 14.5171 33.5589C14.931 33.6412 15.3599 33.599 15.7497 33.4375C16.1395 33.2761 16.4727 33.0026 16.7071 32.6518C16.9415 32.301 17.0667 31.8885 17.0667 31.4666C17.066 30.901 16.8411 30.3587 16.4411 29.9588C16.0412 29.5589 15.4989 29.3339 14.9333 29.3333ZM14.9333 32.5333C14.7224 32.5333 14.5161 32.4707 14.3407 32.3535C14.1653 32.2363 14.0286 32.0697 13.9479 31.8748C13.8671 31.6799 13.846 31.4654 13.8872 31.2585C13.9283 31.0516 14.0299 30.8615 14.1791 30.7123C14.3283 30.5632 14.5183 30.4616 14.7252 30.4204C14.9321 30.3793 15.1466 30.4004 15.3415 30.4811C15.5364 30.5618 15.703 30.6986 15.8202 30.874C15.9374 31.0494 16 31.2556 16 31.4666C15.9997 31.7494 15.8872 32.0205 15.6872 32.2205C15.4872 32.4204 15.2161 32.5329 14.9333 32.5333Z" fill="#F8F7FD"/>
<path d="M33.0666 29.3333C32.6447 29.3333 32.2322 29.4584 31.8814 29.6928C31.5306 29.9272 31.2571 30.2604 31.0957 30.6502C30.9342 31.04 30.892 31.469 30.9743 31.8828C31.0566 32.2966 31.2598 32.6767 31.5581 32.9751C31.8565 33.2734 32.2366 33.4766 32.6504 33.5589C33.0643 33.6412 33.4932 33.599 33.883 33.4375C34.2728 33.2761 34.606 33.0026 34.8404 32.6518C35.0748 32.301 35.2 31.8885 35.2 31.4666C35.1993 30.901 34.9744 30.3587 34.5744 29.9588C34.1745 29.5589 33.6322 29.3339 33.0666 29.3333ZM33.0666 32.5333C32.8557 32.5333 32.6494 32.4707 32.474 32.3535C32.2986 32.2363 32.1619 32.0697 32.0812 31.8748C32.0004 31.6799 31.9793 31.4654 32.0205 31.2585C32.0616 31.0516 32.1632 30.8615 32.3124 30.7123C32.4616 30.5632 32.6516 30.4616 32.8585 30.4204C33.0654 30.3793 33.2799 30.4004 33.4748 30.4811C33.6697 30.5618 33.8363 30.6986 33.9535 30.874C34.0707 31.0494 34.1333 31.2556 34.1333 31.4666C34.133 31.7494 34.0205 32.0205 33.8205 32.2205C33.6205 32.4204 33.3494 32.5329 33.0666 32.5333Z" fill="#F8F7FD"/>
<path d="M38.9333 17.6H37.3333V11.7333C37.3322 10.7435 36.9385 9.79459 36.2386 9.0947C35.5387 8.3948 34.5898 8.00111 33.6 8H14.4C13.4102 8.00111 12.4613 8.3948 11.7614 9.0947C11.0615 9.79459 10.6678 10.7435 10.6667 11.7333V13.8667H23.4667V26.6667H11.7333V13.8667H10.6667V17.6H9.06667C8.78387 17.6003 8.51276 17.7128 8.31279 17.9128C8.11282 18.1128 8.00034 18.3839 8 18.6667V24C8.00034 24.2828 8.11282 24.5539 8.31279 24.7539C8.51276 24.9538 8.78387 25.0663 9.06667 25.0667H10.6667V34.1333C10.6671 34.4641 10.7698 34.7866 10.9608 35.0566C11.1518 35.3267 11.4216 35.531 11.7333 35.6416V38.9333C11.7337 39.2161 11.8462 39.4872 12.0461 39.6872C12.2461 39.8872 12.5172 39.9997 12.8 40H16C16.2828 39.9997 16.5539 39.8872 16.7539 39.6872C16.9538 39.4872 17.0663 39.2161 17.0667 38.9333V35.7333H35.2V37.3333C35.2 38.217 34.4837 38.9333 33.6 38.9333C32.7163 38.9333 32 38.217 32 37.3333V35.7333H30.9333V38.9333C30.9337 39.2161 31.0462 39.4872 31.2461 39.6872C31.4461 39.8872 31.7172 39.9997 32 40H35.2C35.4828 39.9997 35.7539 39.8872 35.9539 39.6872C36.1538 39.4872 36.2663 39.2161 36.2667 38.9333V35.6416C36.5784 35.531 36.8482 35.3267 37.0392 35.0566C37.2302 34.7866 37.3329 34.4641 37.3333 34.1333V25.0667H38.9333C39.2161 25.0663 39.4872 24.9538 39.6872 24.7539C39.8872 24.5539 39.9997 24.2828 40 24V18.6667C39.9997 18.3839 39.8872 18.1128 39.6872 17.9128C39.4872 17.7128 39.2161 17.6003 38.9333 17.6ZM11.7333 11.7333C11.7341 11.0263 12.0153 10.3485 12.5153 9.84859C13.0152 9.34867 13.693 9.06746 14.4 9.06667H33.6C34.307 9.06746 34.9848 9.34867 35.4847 9.84859C35.9847 10.3485 36.2659 11.0263 36.2667 11.7333V12.8H11.7333V11.7333ZM24.5333 13.8667H36.2667V26.6667H24.5333V13.8667ZM10.6667 24C9.78301 24 9.06667 23.2837 9.06667 22.4V20.2667C9.06667 19.383 9.78301 18.6667 10.6667 18.6667V24ZM16 37.3333C16 38.217 15.2837 38.9333 14.4 38.9333C13.5163 38.9333 12.8 38.217 12.8 37.3333V35.7333H16V37.3333ZM35.7333 34.6667H12.2667C12.1253 34.6665 11.9897 34.6103 11.8897 34.5103C11.7897 34.4103 11.7335 34.2747 11.7333 34.1333V27.7333H36.2667V34.1333C36.2665 34.2747 36.2103 34.4103 36.1103 34.5103C36.0103 34.6103 35.8747 34.6665 35.7333 34.6667ZM38.9333 24H37.3333V18.6667C38.217 18.6667 38.9334 19.383 38.9335 20.2667L38.934 24H38.9333Z" fill="#F8F7FD"/>
<path d="M23.4666 10.6666C23.4666 10.3721 23.7054 10.1333 23.9999 10.1333C24.2945 10.1333 24.5333 10.3721 24.5333 10.6666C24.5333 10.9612 24.2945 11.2 23.9999 11.2C23.7054 11.2 23.4666 10.9612 23.4666 10.6666Z" fill="#F8F7FD"/>
<path d="M25.6 10.6666C25.6 10.3721 25.8388 10.1333 26.1334 10.1333C26.4279 10.1333 26.6667 10.3721 26.6667 10.6666C26.6667 10.9612 26.4279 11.2 26.1334 11.2C25.8388 11.2 25.6 10.9612 25.6 10.6666Z" fill="#F8F7FD"/>
<path d="M21.3333 10.6666C21.3333 10.3721 21.5721 10.1333 21.8666 10.1333C22.1612 10.1333 22.4 10.3721 22.4 10.6666C22.4 10.9612 22.1612 11.2 21.8666 11.2C21.5721 11.2 21.3333 10.9612 21.3333 10.6666Z" fill="#F8F7FD"/>
<path d="M13.8667 10.6666C13.8667 10.3721 14.1055 10.1333 14.4 10.1333C14.6946 10.1333 14.9334 10.3721 14.9334 10.6666C14.9334 10.9612 14.6946 11.2 14.4 11.2C14.1055 11.2 13.8667 10.9612 13.8667 10.6666Z" fill="#F8F7FD"/>
<path d="M33.0667 10.6666C33.0667 10.3721 33.3054 10.1333 33.6 10.1333C33.8945 10.1333 34.1333 10.3721 34.1333 10.6666C34.1333 10.9612 33.8945 11.2 33.6 11.2C33.3054 11.2 33.0667 10.9612 33.0667 10.6666Z" fill="#F8F7FD"/>
<defs>
<linearGradient id="paint0_linear" x1="24" y1="0" x2="24" y2="48" gradientUnits="userSpaceOnUse">
<stop stop-color="#6C8BF5" stop-opacity="0.75"/>
<stop offset="0.927083" stop-color="#7000FF" stop-opacity="0.81"/>
</linearGradient>
</defs>
</svg>
