<svg width="97" height="109" viewBox="0 0 97 109" fill="none" xmlns="http://www.w3.org/2000/svg">
<path d="M27.4667 50.6666C26.4646 50.6666 25.485 50.9638 24.6518 51.5205C23.8186 52.0772 23.1692 52.8686 22.7857 53.7944C22.4022 54.7202 22.3019 55.7389 22.4974 56.7218C22.6928 57.7046 23.1754 58.6074 23.884 59.316C24.5926 60.0246 25.4954 60.5071 26.4782 60.7026C27.461 60.8981 28.4798 60.7978 29.4056 60.4143C30.3314 60.0308 31.1227 59.3814 31.6794 58.5482C32.2362 57.715 32.5333 56.7354 32.5333 55.7333C32.5318 54.39 31.9975 53.1021 31.0477 52.1523C30.0978 51.2024 28.81 50.6681 27.4667 50.6666ZM27.4667 58.2666C26.9656 58.2666 26.4758 58.1181 26.0592 57.8397C25.6426 57.5613 25.3179 57.1657 25.1262 56.7028C24.9344 56.2399 24.8843 55.7305 24.982 55.2391C25.0798 54.7476 25.321 54.2962 25.6753 53.942C26.0296 53.5877 26.481 53.3464 26.9724 53.2486C27.4639 53.1509 27.9732 53.2011 28.4361 53.3928C28.899 53.5845 29.2947 53.9092 29.5731 54.3258C29.8514 54.7425 30 55.2322 30 55.7333C29.9992 56.4049 29.732 57.0488 29.2571 57.5238C28.7822 57.9987 28.1383 58.2658 27.4667 58.2666Z" fill="white"/>
<path d="M70.5333 50.6666C69.5312 50.6666 68.5516 50.9638 67.7184 51.5205C66.8852 52.0772 66.2358 52.8686 65.8523 53.7944C65.4688 54.7202 65.3685 55.7389 65.564 56.7218C65.7595 57.7046 66.2421 58.6074 66.9506 59.316C67.6592 60.0246 68.562 60.5071 69.5449 60.7026C70.5277 60.8981 71.5464 60.7978 72.4723 60.4143C73.3981 60.0308 74.1894 59.3814 74.7461 58.5482C75.3028 57.715 75.6 56.7354 75.6 55.7333C75.5985 54.39 75.0642 53.1021 74.1143 52.1523C73.1645 51.2024 71.8766 50.6681 70.5333 50.6666ZM70.5333 58.2666C70.0323 58.2666 69.5425 58.1181 69.1259 57.8397C68.7093 57.5613 68.3846 57.1657 68.1928 56.7028C68.0011 56.2399 67.9509 55.7305 68.0487 55.2391C68.1464 54.7476 68.3877 54.2962 68.742 53.942C69.0963 53.5877 69.5477 53.3464 70.0391 53.2486C70.5305 53.1509 71.0399 53.2011 71.5028 53.3928C71.9657 53.5845 72.3613 53.9092 72.6397 54.3258C72.9181 54.7425 73.0667 55.2322 73.0667 55.7333C73.0659 56.4049 72.7987 57.0488 72.3238 57.5238C71.8489 57.9987 71.205 58.2658 70.5333 58.2666Z" fill="white"/>
<path d="M84.4667 22.8H80.6667V8.86667C80.664 6.51589 79.729 4.26215 78.0668 2.5999C76.4045 0.937652 74.1508 0.00264017 71.8 0H26.2C23.8492 0.00264017 21.5955 0.937652 19.9332 2.5999C18.271 4.26215 17.336 6.51589 17.3333 8.86667V13.9333H47.7333V44.3333H19.8667V13.9333H17.3333V22.8H13.5333C12.8617 22.8008 12.2178 23.068 11.7429 23.5429C11.268 24.0178 11.0008 24.6617 11 25.3333V38C11.0008 38.6716 11.268 39.3155 11.7429 39.7905C12.2178 40.2654 12.8617 40.5325 13.5333 40.5333H17.3333V62.0667C17.3343 62.8522 17.5784 63.6181 18.0319 64.2595C18.4855 64.9008 19.1264 65.3861 19.8667 65.6488V73.4667C19.8675 74.1383 20.1346 74.7822 20.6095 75.2571C21.0845 75.732 21.7284 75.9992 22.4 76H30C30.6716 75.9992 31.3155 75.732 31.7905 75.2571C32.2654 74.7822 32.5325 74.1383 32.5333 73.4667V65.8667H75.6V70.4667C75.6 72.1235 74.2569 73.4667 72.6 73.4667H71C69.3431 73.4667 68 72.1235 68 70.4667V65.8667H65.4667V73.4667C65.4675 74.1383 65.7346 74.7822 66.2095 75.2571C66.6845 75.732 67.3284 75.9992 68 76H75.6C76.2716 75.9992 76.9155 75.732 77.3905 75.2571C77.8654 74.7822 78.1325 74.1383 78.1333 73.4667V65.6488C78.8736 65.3861 79.5145 64.9008 79.9681 64.2595C80.4216 63.6181 80.6657 62.8522 80.6667 62.0667V40.5333H84.4667C85.1383 40.5325 85.7822 40.2654 86.2571 39.7905C86.732 39.3155 86.9992 38.6716 87 38V25.3333C86.9992 24.6617 86.732 24.0178 86.2571 23.5429C85.7822 23.068 85.1383 22.8008 84.4667 22.8ZM19.8667 8.86667C19.8686 7.18754 20.5364 5.57773 21.7237 4.39041C22.9111 3.20308 24.5209 2.53522 26.2 2.53333H71.8C73.4791 2.53522 75.0889 3.20308 76.2763 4.39041C77.4636 5.57773 78.1315 7.18754 78.1333 8.86667V11.4H19.8667V8.86667ZM50.2667 13.9333H78.1333V44.3333H50.2667V13.9333ZM16.5333 38C14.8765 38 13.5333 36.6569 13.5333 35V28.3333C13.5333 26.6765 14.8765 25.3333 16.5333 25.3333H17.3333V38H16.5333ZM30 70.4667C30 72.1235 28.6569 73.4667 27 73.4667H25.4C23.7431 73.4667 22.4 72.1235 22.4 70.4667V65.8667H30V70.4667ZM76.8667 63.3333H21.1333C20.7975 63.333 20.4755 63.1994 20.2381 62.9619C20.0006 62.7245 19.867 62.4025 19.8667 62.0667V46.8667H78.1333V62.0667C78.133 62.4025 77.9994 62.7245 77.7619 62.9619C77.5245 63.1994 77.2025 63.333 76.8667 63.3333ZM84.4667 38H80.6667V25.3333H81.467C83.1237 25.3333 84.4668 26.6763 84.467 28.333L84.4683 38H84.4667Z" fill="white"/>
<path d="M47.7333 6.33332C47.7333 5.63376 48.3004 5.06665 49 5.06665C49.6995 5.06665 50.2666 5.63376 50.2666 6.33332C50.2666 7.03288 49.6995 7.59998 49 7.59998C48.3004 7.59998 47.7333 7.03288 47.7333 6.33332Z" fill="white"/>
<path d="M52.8 6.33332C52.8 5.63376 53.3671 5.06665 54.0667 5.06665C54.7662 5.06665 55.3333 5.63376 55.3333 6.33332C55.3333 7.03288 54.7662 7.59998 54.0667 7.59998C53.3671 7.59998 52.8 7.03288 52.8 6.33332Z" fill="white"/>
<path d="M42.6667 6.33332C42.6667 5.63376 43.2338 5.06665 43.9333 5.06665C44.6329 5.06665 45.2 5.63376 45.2 6.33332C45.2 7.03288 44.6329 7.59998 43.9333 7.59998C43.2338 7.59998 42.6667 7.03288 42.6667 6.33332Z" fill="white"/>
<path d="M24.9333 6.33332C24.9333 5.63376 25.5005 5.06665 26.2 5.06665C26.8996 5.06665 27.4667 5.63376 27.4667 6.33332C27.4667 7.03288 26.8996 7.59998 26.2 7.59998C25.5005 7.59998 24.9333 7.03288 24.9333 6.33332Z" fill="white"/>
<path d="M70.5333 6.33332C70.5333 5.63376 71.1004 5.06665 71.8 5.06665C72.4995 5.06665 73.0667 5.63376 73.0667 6.33332C73.0667 7.03288 72.4995 7.59998 71.8 7.59998C71.1004 7.59998 70.5333 7.03288 70.5333 6.33332Z" fill="white"/>
<path d="M13.478 86.854C13.8613 86.854 14.191 86.9843 14.467 87.245C14.7583 87.5057 14.904 87.82 14.904 88.188C14.904 88.3873 14.858 88.5943 14.766 88.809L9.085 102.103C8.947 102.394 8.75533 102.617 8.51 102.77C8.26467 102.923 8.004 103 7.728 103C7.46733 102.985 7.222 102.908 6.992 102.77C6.77733 102.617 6.60867 102.402 6.486 102.126L0.805 88.786C0.728333 88.6327 0.69 88.441 0.69 88.211C0.69 87.797 0.843333 87.4673 1.15 87.222C1.45667 86.9613 1.771 86.831 2.093 86.831C2.35367 86.831 2.599 86.9077 2.829 87.061C3.059 87.2143 3.23533 87.4367 3.358 87.728L7.981 98.607L12.213 87.728C12.3357 87.452 12.512 87.2373 12.742 87.084C12.972 86.9307 13.2173 86.854 13.478 86.854ZM26.7499 90.465C27.1486 90.465 27.4782 90.5953 27.7389 90.856C27.9996 91.1167 28.1299 91.454 28.1299 91.868V101.597C28.1299 101.996 27.9996 102.333 27.7389 102.609C27.4782 102.87 27.1486 103 26.7499 103C26.3512 103 26.0216 102.87 25.7609 102.609C25.5156 102.348 25.3852 102.019 25.3699 101.62C24.9866 102.065 24.4652 102.448 23.8059 102.77C23.1619 103.077 22.4796 103.23 21.7589 103.23C20.7009 103.23 19.7426 102.962 18.8839 102.425C18.0252 101.873 17.3429 101.114 16.8369 100.148C16.3462 99.182 16.1009 98.0857 16.1009 96.859C16.1009 95.6323 16.3462 94.536 16.8369 93.57C17.3276 92.5887 17.9946 91.8297 18.8379 91.293C19.6966 90.741 20.6396 90.465 21.6669 90.465C22.4029 90.465 23.0929 90.603 23.7369 90.879C24.3809 91.1397 24.9252 91.477 25.3699 91.891V91.868C25.3699 91.4693 25.5002 91.1397 25.7609 90.879C26.0216 90.603 26.3512 90.465 26.7499 90.465ZM22.1039 100.7C23.1006 100.7 23.9132 100.34 24.5419 99.619C25.1706 98.883 25.4849 97.963 25.4849 96.859C25.4849 95.755 25.1706 94.835 24.5419 94.099C23.9132 93.363 23.1006 92.995 22.1039 92.995C21.1226 92.995 20.3176 93.363 19.6889 94.099C19.0602 94.835 18.7459 95.755 18.7459 96.859C18.7459 97.963 19.0526 98.883 19.6659 99.619C20.2946 100.34 21.1072 100.7 22.1039 100.7ZM22.3569 89.913C22.2036 89.913 22.0349 89.844 21.8509 89.706C21.6822 89.568 21.6056 89.384 21.6209 89.154C21.6209 89.016 21.6669 88.8703 21.7589 88.717L23.0929 86.371C23.2462 86.095 23.4302 85.8727 23.6449 85.704C23.8596 85.5353 24.0972 85.451 24.3579 85.451C24.7719 85.451 25.0786 85.5583 25.2779 85.773C25.4926 85.9877 25.5922 86.2637 25.5769 86.601C25.5462 86.9537 25.4006 87.2833 25.1399 87.59L23.3919 89.522C23.1466 89.7827 22.8016 89.913 22.3569 89.913ZM41.08 85.98C41.4786 85.98 41.8083 86.1103 42.069 86.371C42.3296 86.6317 42.46 86.969 42.46 87.383V101.597C42.46 101.996 42.3296 102.333 42.069 102.609C41.8083 102.87 41.4786 103 41.08 103C40.6813 103 40.3516 102.87 40.091 102.609C39.8456 102.348 39.7153 102.019 39.7 101.62C39.3166 102.065 38.7953 102.448 38.136 102.77C37.492 103.077 36.8096 103.23 36.089 103.23C35.031 103.23 34.0726 102.962 33.214 102.425C32.3553 101.873 31.673 101.114 31.167 100.148C30.6763 99.182 30.431 98.0857 30.431 96.859C30.431 95.6323 30.6763 94.536 31.167 93.57C31.6576 92.5887 32.3246 91.8297 33.168 91.293C34.0266 90.741 34.9696 90.465 35.997 90.465C36.733 90.465 37.423 90.603 38.067 90.879C38.711 91.1397 39.2553 91.477 39.7 91.891V87.383C39.7 86.9843 39.8303 86.6547 40.091 86.394C40.3516 86.118 40.6813 85.98 41.08 85.98ZM36.434 100.7C37.4306 100.7 38.2433 100.34 38.872 99.619C39.5006 98.883 39.815 97.963 39.815 96.859C39.815 95.755 39.5006 94.835 38.872 94.099C38.2433 93.363 37.4306 92.995 36.434 92.995C35.4526 92.995 34.6476 93.363 34.019 94.099C33.3903 94.835 33.076 95.755 33.076 96.859C33.076 97.963 33.3826 98.883 33.996 99.619C34.6246 100.34 35.4373 100.7 36.434 100.7ZM56.4911 96.56C56.4757 96.928 56.3301 97.227 56.0541 97.457C55.7781 97.687 55.4561 97.802 55.0881 97.802H47.4981C47.6821 98.7067 48.1037 99.4197 48.7631 99.941C49.4224 100.447 50.1661 100.7 50.9941 100.7C51.6227 100.7 52.1134 100.646 52.4661 100.539C52.8187 100.416 53.0947 100.294 53.2941 100.171C53.5087 100.033 53.6544 99.941 53.7311 99.895C54.0071 99.757 54.2677 99.688 54.5131 99.688C54.8351 99.688 55.1111 99.803 55.3411 100.033C55.5711 100.263 55.6861 100.531 55.6861 100.838C55.6861 101.252 55.4714 101.628 55.0421 101.965C54.6127 102.318 54.0377 102.617 53.3171 102.862C52.5964 103.107 51.8681 103.23 51.1321 103.23C49.8441 103.23 48.7171 102.962 47.7511 102.425C46.8004 101.888 46.0644 101.152 45.5431 100.217C45.0217 99.2663 44.7611 98.2007 44.7611 97.02C44.7611 95.7013 45.0371 94.5437 45.5891 93.547C46.1411 92.5503 46.8694 91.7913 47.7741 91.27C48.6787 90.7333 49.6447 90.465 50.6721 90.465C51.6841 90.465 52.6347 90.741 53.5241 91.293C54.4287 91.845 55.1494 92.5887 55.6861 93.524C56.2227 94.4593 56.4911 95.4713 56.4911 96.56ZM50.6721 92.995C48.8934 92.995 47.8431 93.8307 47.5211 95.502H53.5471V95.341C53.4857 94.697 53.1714 94.145 52.6041 93.685C52.0367 93.225 51.3927 92.995 50.6721 92.995ZM68.6829 94.076C69.4955 94.398 70.1549 94.8887 70.6609 95.548C71.1822 96.2073 71.4429 97.0583 71.4429 98.101C71.4429 99.9257 70.9215 101.198 69.8789 101.919C68.8362 102.64 67.5942 103 66.1529 103H60.4259C60.0272 103 59.6899 102.87 59.4139 102.609C59.1532 102.333 59.0229 101.996 59.0229 101.597V88.303C59.0229 87.9043 59.1532 87.5747 59.4139 87.314C59.6899 87.038 60.0272 86.9 60.4259 86.9H66.2219C69.1352 86.9 70.5919 88.2647 70.5919 90.994C70.5919 91.684 70.4232 92.2973 70.0859 92.834C69.7639 93.3553 69.2962 93.7693 68.6829 94.076ZM67.6019 91.5C67.6019 90.8713 67.4409 90.4037 67.1189 90.097C66.8122 89.775 66.3752 89.614 65.8079 89.614H62.0129V93.202H65.8769C66.3369 93.202 66.7355 93.0487 67.0729 92.742C67.4255 92.4353 67.6019 92.0213 67.6019 91.5ZM66.1529 100.355C66.8735 100.355 67.4332 100.163 67.8319 99.78C68.2459 99.3967 68.4529 98.837 68.4529 98.101C68.4529 97.1963 68.2152 96.606 67.7399 96.33C67.2645 96.054 66.6819 95.916 65.9919 95.916H62.0129V100.355H66.1529ZM82.9951 90.695C83.3938 90.695 83.7235 90.833 83.9841 91.109C84.2448 91.3697 84.3751 91.6993 84.3751 92.098V97.94C84.3751 99.596 83.9151 100.892 82.9951 101.827C82.0905 102.762 80.7948 103.23 79.1081 103.23C77.4215 103.23 76.1258 102.762 75.2211 101.827C74.3165 100.892 73.8641 99.596 73.8641 97.94V92.098C73.8641 91.6993 73.9945 91.3697 74.2551 91.109C74.5158 90.833 74.8455 90.695 75.2441 90.695C75.6428 90.695 75.9725 90.833 76.2331 91.109C76.4938 91.3697 76.6241 91.6993 76.6241 92.098V97.94C76.6241 98.8753 76.8311 99.573 77.2451 100.033C77.6591 100.478 78.2801 100.7 79.1081 100.7C79.9515 100.7 80.5801 100.478 80.9941 100.033C81.4081 99.573 81.6151 98.8753 81.6151 97.94V92.098C81.6151 91.6993 81.7455 91.3697 82.0061 91.109C82.2668 90.833 82.5965 90.695 82.9951 90.695ZM86.6502 101.091C86.5122 100.907 86.4432 100.677 86.4432 100.401C86.4432 100.002 86.6425 99.665 87.0412 99.389C87.2558 99.251 87.4782 99.182 87.7082 99.182C88.0302 99.182 88.3368 99.3277 88.6282 99.619C89.0882 100.094 89.5635 100.447 90.0542 100.677C90.5602 100.907 91.1658 101.022 91.8712 101.022C93.0672 100.976 93.6652 100.524 93.6652 99.665C93.6652 99.2203 93.4582 98.883 93.0442 98.653C92.6455 98.423 92.0168 98.193 91.1582 97.963C90.2688 97.7177 89.5405 97.4723 88.9732 97.227C88.4212 96.9817 87.9382 96.6137 87.5242 96.123C87.1255 95.617 86.9262 94.9423 86.9262 94.099C86.9262 93.363 87.1332 92.7267 87.5472 92.19C87.9765 91.638 88.5285 91.2163 89.2032 90.925C89.8932 90.6183 90.6215 90.465 91.3882 90.465C92.1702 90.465 92.9522 90.6107 93.7342 90.902C94.5162 91.1933 95.1295 91.6227 95.5742 92.19C95.7735 92.4353 95.8732 92.7113 95.8732 93.018C95.8732 93.3707 95.7275 93.662 95.4362 93.892C95.2215 94.0607 94.9762 94.145 94.7002 94.145C94.3628 94.145 94.0868 94.0377 93.8722 93.823C93.5962 93.4857 93.2358 93.2173 92.7912 93.018C92.3618 92.8187 91.8712 92.719 91.3192 92.719C90.1538 92.719 89.5712 93.1407 89.5712 93.984C89.5712 94.3213 89.6785 94.5973 89.8932 94.812C90.1078 95.0113 90.3762 95.1723 90.6982 95.295C91.0355 95.4023 91.5032 95.5403 92.1012 95.709C92.9292 95.939 93.6192 96.1767 94.1712 96.422C94.7232 96.6673 95.1908 97.043 95.5742 97.549C95.9575 98.055 96.1492 98.722 96.1492 99.55C96.1492 100.301 95.9268 100.961 95.4822 101.528C95.0375 102.08 94.4625 102.502 93.7572 102.793C93.0672 103.084 92.3542 103.23 91.6182 103.23C90.6062 103.23 89.6632 103.061 88.7892 102.724C87.9152 102.387 87.2022 101.842 86.6502 101.091Z" fill="white"/>
</svg>
