    <svg
      width="23"
      height="23"
      viewBox="0 0 23 23"
      fill="none"
      xmlns="http://www.w3.org/2000/svg"
    >
      <mask
        id="mask0"
        mask-type="alpha"
        maskUnits="userSpaceOnUse"
        x="0"
        y="0"
        width="23"
        height="23"
      >
        <path
          d="M21.8614 0H1.13861C0.509775 0 0 0.478951 0 1.06977V16.4744C0 17.0652 0.509775 17.5442 1.13861 17.5442H21.8614C22.4902 17.5442 23 17.0652 23 16.4744V1.06977C23 0.478951 22.4902 0 21.8614 0Z"
          fill="#C4C4C4"
        />
        <path
          d="M11.8985 22.2858C11.7214 22.5702 11.2831 22.5676 11.1096 22.2814L7.01186 15.5183C6.83841 15.232 7.05984 14.8767 7.41044 14.8787L15.6933 14.9261C16.0439 14.9281 16.2607 15.2859 16.0835 15.5702L11.8985 22.2858Z"
          fill="#C4C4C4"
        />
      </mask>
      <g mask="url(#mask0)">
        <path d="M24.594 0H-0.569336V23H24.594V0Z" fill="url(#paint0_linear)" />
        <path
          d="M6.85442 11.304C6.63823 11.304 6.42689 11.3633 6.24714 11.4746C6.06739 11.5858 5.92729 11.7441 5.84456 11.9291C5.76183 12.1141 5.74017 12.3178 5.78236 12.5142C5.82453 12.7107 5.92864 12.8911 6.08151 13.0327C6.23438 13.1743 6.42914 13.2708 6.64117 13.3099C6.85321 13.3489 7.07299 13.3289 7.27272 13.2522C7.47245 13.1756 7.64316 13.0459 7.76327 12.8793C7.88338 12.7127 7.94749 12.517 7.94749 12.3166C7.94716 12.0482 7.8319 11.7907 7.62698 11.6009C7.42205 11.411 7.14422 11.3043 6.85442 11.304ZM6.85442 12.823C6.74633 12.823 6.64066 12.7933 6.55079 12.7377C6.4609 12.682 6.39086 12.603 6.34949 12.5104C6.30813 12.4179 6.2973 12.3161 6.31838 12.2179C6.33947 12.1197 6.39153 12.0294 6.46796 11.9585C6.5444 11.8877 6.64178 11.8396 6.7478 11.82C6.85382 11.8004 6.9637 11.8105 7.06357 11.8488C7.16344 11.8872 7.24879 11.952 7.30885 12.0354C7.3689 12.1186 7.40095 12.2165 7.40095 12.3166C7.40078 12.4509 7.34315 12.5795 7.24068 12.6745C7.13823 12.7694 6.99932 12.8228 6.85442 12.823Z"
          fill="white"
        />
        <path
          d="M16.1455 11.304C15.9292 11.304 15.7179 11.3633 15.5381 11.4746C15.3584 11.5858 15.2183 11.7441 15.1356 11.9291C15.0528 12.1141 15.0312 12.3178 15.0733 12.5142C15.1156 12.7107 15.2197 12.8911 15.3726 13.0327C15.5254 13.1743 15.7202 13.2708 15.9322 13.3099C16.1442 13.3489 16.3641 13.3289 16.5638 13.2522C16.7635 13.1756 16.9342 13.0459 17.0543 12.8793C17.1744 12.7127 17.2385 12.517 17.2385 12.3166C17.2382 12.0482 17.123 11.7907 16.918 11.6009C16.7131 11.411 16.4352 11.3043 16.1455 11.304ZM16.1455 12.823C16.0374 12.823 15.9317 12.7933 15.8418 12.7377C15.752 12.682 15.6819 12.603 15.6405 12.5104C15.5992 12.4179 15.5883 12.3161 15.6094 12.2179C15.6305 12.1197 15.6826 12.0294 15.759 11.9585C15.8354 11.8877 15.9328 11.8396 16.0389 11.82C16.1449 11.8004 16.2548 11.8105 16.3546 11.8488C16.4545 11.8872 16.5399 11.952 16.5999 12.0354C16.6599 12.1186 16.692 12.2165 16.692 12.3166C16.6918 12.4509 16.6342 12.5795 16.5317 12.6745C16.4293 12.7694 16.2904 12.8228 16.1455 12.823Z"
          fill="white"
        />
        <path
          d="M19.1515 5.73397H18.3317V2.94901C18.3311 2.47914 18.1294 2.02867 17.7708 1.69642C17.4122 1.36417 16.926 1.17728 16.4188 1.17676H6.58121C6.07406 1.17728 5.58785 1.36417 5.22923 1.69642C4.87063 2.02867 4.66891 2.47914 4.66834 2.94901V3.96172H11.2268V10.038H5.21487V3.96172H4.66834V5.73397H3.84854C3.70364 5.73413 3.56473 5.78753 3.46227 5.88245C3.35981 5.97738 3.30217 6.10607 3.302 6.24032V8.77211C3.30217 8.90635 3.35981 9.03506 3.46227 9.12998C3.56473 9.22491 3.70364 9.2783 3.84854 9.27846H4.66834V13.5825C4.66856 13.7395 4.7212 13.8925 4.81906 14.0208C4.9169 14.149 5.05516 14.246 5.21487 14.2985V15.8611C5.21504 15.9954 5.27268 16.1241 5.37514 16.219C5.4776 16.3139 5.61651 16.3673 5.76141 16.3675H7.40101C7.54591 16.3673 7.68482 16.3139 7.78728 16.219C7.88974 16.1241 7.94738 15.9954 7.94755 15.8611V14.3421H17.2386V15.5402C17.2386 15.7175 17.0857 15.8611 16.8971 15.8611H15.9406C15.7519 15.8611 15.599 15.7175 15.599 15.5402V14.3421H15.0525V15.8611C15.0527 15.9954 15.1103 16.1241 15.2128 16.219C15.3152 16.3139 15.4541 16.3673 15.599 16.3675H17.2386C17.3836 16.3673 17.5225 16.3139 17.6249 16.219C17.7273 16.1241 17.7849 15.9954 17.7852 15.8611V14.2985C17.9449 14.246 18.0831 14.149 18.181 14.0208C18.2789 13.8925 18.3315 13.7395 18.3317 13.5825V9.27846H19.1515C19.2965 9.2783 19.4354 9.22491 19.5377 9.12998C19.6402 9.03506 19.6978 8.90635 19.698 8.77211V6.24032C19.6978 6.10607 19.6402 5.97738 19.5377 5.88245C19.4354 5.78753 19.2965 5.73413 19.1515 5.73397ZM5.21487 2.94901C5.21528 2.61339 5.35936 2.29162 5.61552 2.0543C5.87166 1.81698 6.21896 1.6835 6.58121 1.68311H16.4188C16.7811 1.6835 17.1284 1.81698 17.3845 2.0543C17.6407 2.29162 17.7847 2.61339 17.7852 2.94901V3.45536H5.21487V2.94901ZM11.7733 3.96172H17.7852V10.038H11.7733V3.96172ZM4.19012 8.77211C4.00146 8.77211 3.84854 8.62843 3.84854 8.45118V6.56125C3.84854 6.38401 4.00146 6.24032 4.19012 6.24032H4.66834V8.77211H4.19012ZM7.40101 15.5402C7.40101 15.7175 7.24808 15.8611 7.05943 15.8611H6.10299C5.91434 15.8611 5.76141 15.7175 5.76141 15.5402V14.3421H7.40101V15.5402ZM17.5119 13.8356H5.48814C5.41569 13.8356 5.34624 13.8089 5.295 13.7614C5.24377 13.714 5.21495 13.6496 5.21487 13.5825V10.5444H17.7852V13.5825C17.7851 13.6496 17.7563 13.714 17.705 13.7614C17.6538 13.8089 17.5843 13.8356 17.5119 13.8356ZM19.1515 8.77211H18.3317V6.24032H18.8099C18.9986 6.24032 19.1515 6.38398 19.1515 6.56122L19.1518 8.77211H19.1515Z"
          fill="white"
        />
        <path
          d="M11.2267 2.44262C11.2267 2.30281 11.3473 2.18945 11.4962 2.18945H11.5037C11.6526 2.18945 11.7732 2.30281 11.7732 2.44262C11.7732 2.58245 11.6526 2.69581 11.5037 2.69581H11.4962C11.3473 2.69581 11.2267 2.58245 11.2267 2.44262Z"
          fill="white"
        />
        <path
          d="M12.3198 2.44262C12.3198 2.30281 12.4405 2.18945 12.5893 2.18945H12.5969C12.7457 2.18945 12.8664 2.30281 12.8664 2.44262C12.8664 2.58245 12.7457 2.69581 12.5969 2.69581H12.5893C12.4405 2.69581 12.3198 2.58245 12.3198 2.44262Z"
          fill="white"
        />
        <path
          d="M10.1337 2.44262C10.1337 2.30281 10.2543 2.18945 10.4031 2.18945H10.4107C10.5596 2.18945 10.6802 2.30281 10.6802 2.44262C10.6802 2.58245 10.5596 2.69581 10.4107 2.69581H10.4031C10.2543 2.69581 10.1337 2.58245 10.1337 2.44262Z"
          fill="white"
        />
        <path
          d="M6.30786 2.44262C6.30786 2.30281 6.42851 2.18945 6.57734 2.18945H6.58492C6.73375 2.18945 6.8544 2.30281 6.8544 2.44262C6.8544 2.58245 6.73375 2.69581 6.58492 2.69581H6.57734C6.42851 2.69581 6.30786 2.58245 6.30786 2.44262Z"
          fill="white"
        />
        <path
          d="M16.1455 2.44262C16.1455 2.30281 16.2662 2.18945 16.415 2.18945H16.4225C16.5713 2.18945 16.692 2.30281 16.692 2.44262C16.692 2.58245 16.5713 2.69581 16.4225 2.69581H16.415C16.2662 2.69581 16.1455 2.58245 16.1455 2.44262Z"
          fill="white"
        />
      </g>
      <defs>
        <linearGradient
          id="paint0_linear"
          x1="12.0123"
          y1="0"
          x2="12.0123"
          y2="23"
          gradientUnits="userSpaceOnUse"
        >
          <stop stop-color="#27DB7E" />
          <stop offset="1" stop-color="#27DB7E" stop-opacity="0.81" />
        </linearGradient>
      </defs>
    </svg>
