<svg width="64" height="64" viewBox="0 0 64 64" fill="none" xmlns="http://www.w3.org/2000/svg">
<g clip-path="url(#clip0)">
<path d="M31.875 8C27.7975 8 24.4922 11.3053 24.4922 15.3828C24.4922 18.6793 29.3174 24.6875 31.166 26.8684C31.5404 27.3102 32.2102 27.3102 32.584 26.8684C34.4326 24.6875 39.2578 18.6793 39.2578 15.3828C39.2578 11.3053 35.9525 8 31.875 8ZM31.875 17.8438C30.5156 17.8438 29.4141 16.7422 29.4141 15.3828C29.4141 14.0234 30.5156 12.9219 31.875 12.9219C33.2344 12.9219 34.3359 14.0234 34.3359 15.3828C34.3359 16.7422 33.2344 17.8438 31.875 17.8438ZM16.1789 20.6533C15.831 20.7925 15.5327 21.0327 15.3226 21.343C15.1124 21.6533 15.0001 22.0194 15 22.3941V37.0613C15 37.7246 15.6697 38.1781 16.2855 37.932L24.375 34.25V20.593C23.857 19.6566 23.4334 18.7449 23.1299 17.873L16.1789 20.6533ZM31.875 29.0744C31.0506 29.0744 30.2707 28.7123 29.7357 28.0807C28.5838 26.7213 27.3586 25.1732 26.25 23.5854V34.2494L37.5 37.9994V23.5859C36.3914 25.1732 35.1668 26.7219 34.0143 28.0812C33.4793 28.7123 32.6994 29.0744 31.875 29.0744ZM47.4645 17.443L39.375 21.125V38L47.5711 34.7217C47.9191 34.5826 48.2174 34.3424 48.4275 34.0321C48.6377 33.7218 48.75 33.3556 48.75 32.9809V18.3137C48.75 17.6504 48.0803 17.1969 47.4645 17.443Z" fill="#A6A6A6"/>
</g>
<path d="M14.1152 50.6602V54H12.9902V45.4688H16.1367C17.0703 45.4688 17.8008 45.707 18.3281 46.1836C18.8594 46.6602 19.125 47.291 19.125 48.0762C19.125 48.9043 18.8652 49.543 18.3457 49.9922C17.8301 50.4375 17.0898 50.6602 16.125 50.6602H14.1152ZM14.1152 49.7402H16.1367C16.7383 49.7402 17.1992 49.5996 17.5195 49.3184C17.8398 49.0332 18 48.623 18 48.0879C18 47.5801 17.8398 47.1738 17.5195 46.8691C17.1992 46.5645 16.7598 46.4062 16.2012 46.3945H14.1152V49.7402ZM24.2344 54C24.1719 53.875 24.1211 53.6523 24.082 53.332C23.5781 53.8555 22.9766 54.1172 22.2773 54.1172C21.6523 54.1172 21.1387 53.9414 20.7363 53.5898C20.3379 53.2344 20.1387 52.7852 20.1387 52.2422C20.1387 51.582 20.3887 51.0703 20.8887 50.707C21.3926 50.3398 22.0996 50.1562 23.0098 50.1562H24.0645V49.6582C24.0645 49.2793 23.9512 48.9785 23.7246 48.7559C23.498 48.5293 23.1641 48.416 22.7227 48.416C22.3359 48.416 22.0117 48.5137 21.75 48.709C21.4883 48.9043 21.3574 49.1406 21.3574 49.418H20.2676C20.2676 49.1016 20.3789 48.7969 20.6016 48.5039C20.8281 48.207 21.1328 47.9727 21.5156 47.8008C21.9023 47.6289 22.3262 47.543 22.7871 47.543C23.5176 47.543 24.0898 47.7266 24.5039 48.0938C24.918 48.457 25.1328 48.959 25.1484 49.5996V52.5176C25.1484 53.0996 25.2227 53.5625 25.3711 53.9062V54H24.2344ZM22.4355 53.1738C22.7754 53.1738 23.0977 53.0859 23.4023 52.9102C23.707 52.7344 23.9277 52.5059 24.0645 52.2246V50.9238H23.2148C21.8867 50.9238 21.2227 51.3125 21.2227 52.0898C21.2227 52.4297 21.3359 52.6953 21.5625 52.8867C21.7891 53.0781 22.0801 53.1738 22.4355 53.1738ZM29.9121 48.6328C29.748 48.6055 29.5703 48.5918 29.3789 48.5918C28.668 48.5918 28.1855 48.8945 27.9316 49.5V54H26.8477V47.6602H27.9023L27.9199 48.3926C28.2754 47.8262 28.7793 47.543 29.4316 47.543C29.6426 47.543 29.8027 47.5703 29.9121 47.625V48.6328ZM32.6777 46.125V47.6602H33.8613V48.498H32.6777V52.4297C32.6777 52.6836 32.7305 52.875 32.8359 53.0039C32.9414 53.1289 33.1211 53.1914 33.375 53.1914C33.5 53.1914 33.6719 53.168 33.8906 53.1211V54C33.6055 54.0781 33.3281 54.1172 33.0586 54.1172C32.5742 54.1172 32.209 53.9707 31.9629 53.6777C31.7168 53.3848 31.5938 52.9688 31.5938 52.4297V48.498H30.4395V47.6602H31.5938V46.125H32.6777ZM36.3105 54H35.2266V47.6602H36.3105V54ZM35.1387 45.9785C35.1387 45.8027 35.1914 45.6543 35.2969 45.5332C35.4062 45.4121 35.5664 45.3516 35.7773 45.3516C35.9883 45.3516 36.1484 45.4121 36.2578 45.5332C36.3672 45.6543 36.4219 45.8027 36.4219 45.9785C36.4219 46.1543 36.3672 46.3008 36.2578 46.418C36.1484 46.5352 35.9883 46.5938 35.7773 46.5938C35.5664 46.5938 35.4062 46.5352 35.2969 46.418C35.1914 46.3008 35.1387 46.1543 35.1387 45.9785ZM37.7871 50.7773C37.7871 49.8047 38.0176 49.0234 38.4785 48.4336C38.9395 47.8398 39.543 47.543 40.2891 47.543C41.0312 47.543 41.6191 47.7969 42.0527 48.3047V45H43.1367V54H42.1406L42.0879 53.3203C41.6543 53.8516 41.0508 54.1172 40.2773 54.1172C39.543 54.1172 38.9434 53.8164 38.4785 53.2148C38.0176 52.6133 37.7871 51.8281 37.7871 50.8594V50.7773ZM38.8711 50.9004C38.8711 51.6191 39.0195 52.1816 39.3164 52.5879C39.6133 52.9941 40.0234 53.1973 40.5469 53.1973C41.2344 53.1973 41.7363 52.8887 42.0527 52.2715V49.3594C41.7285 48.7617 41.2305 48.4629 40.5586 48.4629C40.0273 48.4629 39.6133 48.668 39.3164 49.0781C39.0195 49.4883 38.8711 50.0957 38.8711 50.9004ZM48.7383 54C48.6758 53.875 48.625 53.6523 48.5859 53.332C48.082 53.8555 47.4805 54.1172 46.7812 54.1172C46.1562 54.1172 45.6426 53.9414 45.2402 53.5898C44.8418 53.2344 44.6426 52.7852 44.6426 52.2422C44.6426 51.582 44.8926 51.0703 45.3926 50.707C45.8965 50.3398 46.6035 50.1562 47.5137 50.1562H48.5684V49.6582C48.5684 49.2793 48.4551 48.9785 48.2285 48.7559C48.002 48.5293 47.668 48.416 47.2266 48.416C46.8398 48.416 46.5156 48.5137 46.2539 48.709C45.9922 48.9043 45.8613 49.1406 45.8613 49.418H44.7715C44.7715 49.1016 44.8828 48.7969 45.1055 48.5039C45.332 48.207 45.6367 47.9727 46.0195 47.8008C46.4062 47.6289 46.8301 47.543 47.291 47.543C48.0215 47.543 48.5938 47.7266 49.0078 48.0938C49.4219 48.457 49.6367 48.959 49.6523 49.5996V52.5176C49.6523 53.0996 49.7266 53.5625 49.875 53.9062V54H48.7383ZM46.9395 53.1738C47.2793 53.1738 47.6016 53.0859 47.9062 52.9102C48.2109 52.7344 48.4316 52.5059 48.5684 52.2246V50.9238H47.7188C46.3906 50.9238 45.7266 51.3125 45.7266 52.0898C45.7266 52.4297 45.8398 52.6953 46.0664 52.8867C46.293 53.0781 46.584 53.1738 46.9395 53.1738Z" fill="#A6A6A6"/>
<defs>
<clipPath id="clip0">
<rect x="15" y="8" width="33.75" height="30" fill="white"/>
</clipPath>
</defs>
</svg>
