<svg width="165" height="165" viewBox="0 0 165 165" fill="none" xmlns="http://www.w3.org/2000/svg">
<path d="M143.894 82.4999C143.893 92.2303 141.579 101.821 137.143 110.481C132.707 119.142 126.277 126.624 118.381 132.31C110.485 137.997 101.351 141.726 91.7316 143.189C82.1119 144.652 72.2822 143.808 63.053 140.725C53.8237 137.643 45.4592 132.411 38.6491 125.462C31.839 118.512 26.7783 110.043 23.8843 100.753C20.9903 91.4626 20.3458 81.6178 22.0041 72.0299C23.6623 62.4419 27.5757 53.3854 33.4217 45.607C33.7806 45.1283 34.315 44.8119 34.9073 44.7273C35.4996 44.6427 36.1012 44.7968 36.5799 45.1558C37.0585 45.5148 37.3749 46.0492 37.4595 46.6415C37.5441 47.2337 37.39 47.8354 37.031 48.314C28.4001 59.7981 24.4358 74.1235 25.935 88.4109C27.4341 102.698 34.2855 115.889 45.1122 125.331C55.9389 134.774 69.9384 139.768 84.297 139.311C98.6556 138.854 112.309 132.979 122.513 122.867C132.717 112.755 138.716 99.1556 139.303 84.8018C139.891 70.4479 135.023 56.4037 125.679 45.4918C116.335 34.5799 103.207 27.6092 88.9342 25.9805C74.661 24.3518 60.3002 28.186 48.7383 36.7124C48.5 36.8885 48.2294 37.0159 47.9419 37.0874C47.6544 37.1588 47.3557 37.173 47.0627 37.129C46.7697 37.085 46.4883 36.9837 46.2345 36.831C45.9806 36.6782 45.7594 36.477 45.5833 36.2387C45.4073 36.0004 45.2799 35.7298 45.2084 35.4423C45.1369 35.1548 45.1228 34.8561 45.1668 34.5631C45.2108 34.2701 45.312 33.9887 45.4648 33.7349C45.6175 33.481 45.8188 33.2598 46.0571 33.0837C55.2002 26.3421 66.0345 22.2692 77.3545 21.3181C88.6745 20.3671 100.036 22.5751 110.176 27.6966C120.316 32.8181 128.837 40.6523 134.789 50.3276C140.742 60.0029 143.894 71.14 143.894 82.4999ZM40.6056 43.0198C40.9025 43.0201 41.1965 42.9616 41.4706 42.8476C41.7447 42.7337 41.9936 42.5666 42.2028 42.356C42.4219 42.1368 42.6436 41.9164 42.8679 41.6998C43.2968 41.2826 43.5424 40.712 43.5506 40.1137C43.5588 39.5154 43.329 38.9383 42.9117 38.5094C42.4945 38.0805 41.9239 37.8349 41.3256 37.8267C40.7273 37.8185 40.1502 38.0483 39.7213 38.4656C39.4815 38.6985 39.2439 38.9335 39.0085 39.1707C38.6941 39.4866 38.4803 39.8886 38.3941 40.3258C38.3078 40.7631 38.3529 41.2161 38.5237 41.6277C38.6946 42.0394 38.9834 42.3913 39.3539 42.639C39.7244 42.8867 40.1599 43.0192 40.6056 43.0198ZM114.856 121.181C115.408 121.181 115.942 120.978 116.354 120.61C116.988 120.048 117.606 119.47 118.207 118.877C118.419 118.67 118.587 118.422 118.703 118.15C118.819 117.877 118.881 117.584 118.883 117.287C118.886 116.991 118.831 116.697 118.72 116.422C118.609 116.147 118.445 115.897 118.237 115.685C118.03 115.473 117.783 115.305 117.51 115.189C117.237 115.073 116.944 115.011 116.648 115.009C116.351 115.006 116.057 115.061 115.782 115.172C115.507 115.283 115.257 115.447 115.045 115.655C114.494 116.194 113.931 116.721 113.355 117.234C113.011 117.537 112.768 117.939 112.658 118.384C112.548 118.829 112.576 119.298 112.739 119.727C112.902 120.155 113.192 120.524 113.57 120.784C113.948 121.044 114.397 121.182 114.856 121.181ZM121.538 111.737C121.783 111.904 122.058 112.021 122.349 112.081C122.639 112.142 122.938 112.144 123.229 112.089C123.52 112.034 123.798 111.921 124.045 111.759C124.293 111.596 124.506 111.387 124.673 111.142C131.686 100.805 134.655 88.251 133.017 75.8677C131.378 63.4843 125.246 52.1349 115.786 43.9775C106.327 35.8201 94.1988 31.4236 81.7091 31.624C69.2194 31.8243 57.2389 36.6076 48.0456 45.0642C38.8523 53.5209 33.0874 65.0612 31.847 77.4907C30.6065 89.9202 33.9772 102.372 41.3179 112.479C48.6587 122.586 59.4576 129.642 71.6614 132.307C83.8651 134.971 96.6226 133.058 107.508 126.931C107.766 126.786 107.993 126.591 108.176 126.358C108.358 126.125 108.493 125.858 108.573 125.572C108.653 125.287 108.675 124.989 108.64 124.695C108.604 124.4 108.511 124.116 108.365 123.858C108.22 123.6 108.025 123.373 107.792 123.191C107.558 123.008 107.292 122.873 107.006 122.793C106.721 122.714 106.423 122.691 106.128 122.727C105.834 122.762 105.55 122.855 105.292 123.001C95.3602 128.595 83.7189 130.343 72.582 127.914C61.4451 125.485 51.5894 119.048 44.8891 109.826C38.1887 100.604 35.1112 89.2419 36.2417 77.8994C37.3722 66.5568 42.6319 56.0253 51.0205 48.3076C59.4092 40.59 70.3416 36.2244 81.7389 36.0412C93.1362 35.858 104.203 39.8699 112.836 47.314C121.468 54.758 127.064 65.115 128.558 76.4154C130.052 87.7158 127.342 99.1713 120.941 108.603C120.605 109.098 120.479 109.706 120.591 110.294C120.703 110.882 121.043 111.401 121.538 111.737ZM60.4997 77.4481L74.9656 92.3561C75.1711 92.5717 75.4174 92.7444 75.69 92.8642C75.9627 92.9841 76.2564 93.0488 76.5542 93.0546C76.852 93.0604 77.148 93.0071 77.4251 92.8979C77.7022 92.7887 77.955 92.6257 78.1688 92.4183C78.3826 92.2109 78.5532 91.9632 78.6707 91.6895C78.7883 91.4158 78.8505 91.1216 78.8537 90.8238C78.857 90.5259 78.8012 90.2304 78.6896 89.9542C78.5781 89.678 78.4129 89.4267 78.2037 89.2147L63.7365 74.3092C63.0026 73.553 62.1269 72.9487 61.1595 72.5308C60.192 72.113 59.1517 71.8898 58.098 71.874C57.0443 71.8582 55.9977 72.0501 55.0182 72.4387C54.0386 72.8274 53.1452 73.4052 52.3889 74.1391C51.6327 74.873 51.0284 75.7487 50.6105 76.7162C50.1927 77.6836 49.9695 78.7239 49.9537 79.7776C49.9379 80.8314 50.1298 81.8779 50.5184 82.8575C50.9071 83.837 51.4848 84.7304 52.2188 85.4867L70.972 104.81C71.7216 105.578 72.617 106.19 73.6057 106.608C74.5944 107.026 75.6567 107.243 76.7303 107.246H76.8682C77.9653 107.225 79.0466 106.981 80.0458 106.528C81.0451 106.074 81.9412 105.422 82.6793 104.61L112.972 71.1691C114.373 69.5869 115.094 67.5162 114.977 65.4061C114.861 63.2961 113.918 61.317 112.351 59.8983C110.785 58.4797 108.722 57.7359 106.611 57.8284C104.5 57.9209 102.51 58.8423 101.074 60.3925L82.4189 80.9853C82.0172 81.4287 81.8081 82.0135 81.8376 82.6111C81.8671 83.2087 82.1328 83.7701 82.5762 84.1719C83.0196 84.5736 83.6044 84.7827 84.202 84.7532C84.7996 84.7237 85.361 84.458 85.7627 84.0146L104.414 63.4218C105.043 62.7441 105.914 62.3416 106.838 62.3015C107.762 62.2614 108.664 62.5868 109.35 63.2074C110.035 63.828 110.449 64.6937 110.5 65.6169C110.552 66.5401 110.238 67.4466 109.626 68.1398L79.3355 101.578C79.0129 101.934 78.6206 102.22 78.1831 102.419C77.7455 102.617 77.2719 102.724 76.7914 102.733C76.311 102.741 75.834 102.651 75.3898 102.467C74.9456 102.284 74.5437 102.012 74.2089 101.667L55.4569 82.344C55.1353 82.0129 54.882 81.6216 54.7116 81.1926C54.5411 80.7636 54.4568 80.3053 54.4635 79.8437C54.4702 79.3821 54.5678 78.9264 54.7506 78.5025C54.9334 78.0787 55.198 77.695 55.5291 77.3733C55.8602 77.0517 56.2514 76.7984 56.6804 76.628C57.1094 76.4576 57.5678 76.3733 58.0293 76.38C58.4909 76.3867 58.9466 76.4842 59.3705 76.6671C59.7944 76.8499 60.1781 77.1144 60.4997 77.4455V77.4481Z" fill="white"/>
</svg>
